<svg xmlns="http://www.w3.org/2000/svg" viewBox="0 0 128 128">
  <defs>
    <linearGradient id="g" x1="14" y1="14" x2="114" y2="114" gradientUnits="userSpaceOnUse">
      <stop offset="0" stop-color="#2563eb"/>
      <stop offset="1" stop-color="#14b8a6"/>
    </linearGradient>
    <filter id="s" x="-20%" y="-20%" width="140%" height="140%">
      <feDropShadow dx="0" dy="8" stdDeviation="8" flood-color="#0f172a" flood-opacity=".22"/>
    </filter>
  </defs>
  <rect x="14" y="14" width="100" height="100" rx="28" fill="url(#g)" filter="url(#s)"/>
  <path d="M64 26 95 39v24c0 25-14 39-31 47-17-8-31-22-31-47V39l31-13Z" fill="#fff" opacity=".95"/>
  <path d="M64 36 86 45v18c0 17-8 28-22 36-14-8-22-19-22-36V45l22-9Z" fill="#0f7ad8"/>
  <path d="M44 61c7-5 14-5 20 0s13 5 20 0v10c-7 5-14 5-20 0s-13-5-20 0V61Z" fill="#fff"/>
  <path d="M44 78c7-5 14-5 20 0s13 5 20 0v8c-7 5-14 5-20 0s-13-5-20 0v-8Z" fill="#bff7ee"/>
  <circle cx="92" cy="36" r="8" fill="#22c55e" stroke="#fff" stroke-width="4"/>
</svg>
